<svg xmlns="http://www.w3.org/2000/svg" width="1200" height="720" viewBox="0 0 1200 720" role="img" aria-labelledby="title desc">
  <title id="title">Workout Tracker Preview</title>
  <desc id="desc">Illustrated preview of the Workout Intelligence Platform showing dashboard, tracker, programs, and Hercules AI.</desc>
  <defs>
    <linearGradient id="bg" x1="0" y1="0" x2="1" y2="1">
      <stop offset="0%" stop-color="#08111f"/>
      <stop offset="100%" stop-color="#16243c"/>
    </linearGradient>
    <linearGradient id="accent" x1="0" y1="0" x2="1" y2="1">
      <stop offset="0%" stop-color="#4f8cff"/>
      <stop offset="100%" stop-color="#2ecc71"/>
    </linearGradient>
    <filter id="shadow" x="-20%" y="-20%" width="140%" height="140%">
      <feDropShadow dx="0" dy="16" stdDeviation="18" flood-color="#000814" flood-opacity="0.35"/>
    </filter>
  </defs>

  <rect width="1200" height="720" fill="url(#bg)"/>
  <circle cx="180" cy="120" r="180" fill="#1c3358" opacity="0.28"/>
  <circle cx="1040" cy="640" r="220" fill="#0d5f4c" opacity="0.22"/>

  <rect x="52" y="32" rx="22" ry="22" width="1096" height="76" fill="#091425" stroke="#21324e" opacity="0.96"/>
  <circle cx="92" cy="70" r="18" fill="url(#accent)"/>
  <text x="122" y="77" fill="#f8fafc" font-family="Arial, Helvetica, sans-serif" font-size="24" font-weight="700">Hercules</text>
  <rect x="830" y="51" rx="14" ry="14" width="90" height="36" fill="#12233c" stroke="#274165"/>
  <rect x="934" y="51" rx="14" ry="14" width="80" height="36" fill="#12233c" stroke="#274165"/>
  <rect x="1028" y="51" rx="14" ry="14" width="92" height="36" fill="#17335c" stroke="#3d67a8"/>
  <text x="855" y="74" fill="#c7d2e5" font-family="Arial, Helvetica, sans-serif" font-size="14">Dashboard</text>
  <text x="955" y="74" fill="#c7d2e5" font-family="Arial, Helvetica, sans-serif" font-size="14">Tracker</text>
  <text x="1056" y="74" fill="#e2ebff" font-family="Arial, Helvetica, sans-serif" font-size="14" font-weight="700">Programs</text>

  <text x="70" y="78" fill="#f8fafc" font-family="Arial, Helvetica, sans-serif" font-size="34" font-weight="700">Workout Intelligence Platform</text>
  <text x="70" y="132" fill="#a8b6cc" font-family="Arial, Helvetica, sans-serif" font-size="19">Dashboard, tracker, programs, and Hercules AI coaching in one product workflow</text>

  <g filter="url(#shadow)">
    <rect x="64" y="174" rx="26" ry="26" width="500" height="230" fill="#0f172a" stroke="#21324e"/>
    <rect x="596" y="174" rx="26" ry="26" width="540" height="230" fill="#0f172a" stroke="#21324e"/>
    <rect x="64" y="436" rx="26" ry="26" width="330" height="220" fill="#0f172a" stroke="#21324e"/>
    <rect x="426" y="436" rx="26" ry="26" width="710" height="220" fill="#0f172a" stroke="#21324e"/>
  </g>

  <text x="94" y="212" fill="#f8fafc" font-family="Arial, Helvetica, sans-serif" font-size="24" font-weight="700">Dashboard</text>
  <text x="626" y="212" fill="#f8fafc" font-family="Arial, Helvetica, sans-serif" font-size="24" font-weight="700">Tracker</text>
  <text x="94" y="474" fill="#f8fafc" font-family="Arial, Helvetica, sans-serif" font-size="24" font-weight="700">Programs</text>
  <text x="456" y="474" fill="#f8fafc" font-family="Arial, Helvetica, sans-serif" font-size="24" font-weight="700">Hercules AI</text>

  <g>
    <rect x="94" y="238" rx="16" ry="16" width="132" height="92" fill="#111f36" stroke="#274165"/>
    <rect x="242" y="238" rx="16" ry="16" width="132" height="92" fill="#111f36" stroke="#274165"/>
    <rect x="390" y="238" rx="16" ry="16" width="132" height="92" fill="#111f36" stroke="#274165"/>
    <path d="M94 358 C170 320, 240 340, 314 298 S452 306, 522 266" fill="none" stroke="url(#accent)" stroke-width="6" stroke-linecap="round"/>
    <text x="114" y="267" fill="#a8b6cc" font-family="Arial, Helvetica, sans-serif" font-size="14">Volume</text>
    <text x="114" y="302" fill="#f8fafc" font-family="Arial, Helvetica, sans-serif" font-size="28" font-weight="700">18,420</text>
    <text x="262" y="267" fill="#a8b6cc" font-family="Arial, Helvetica, sans-serif" font-size="14">Best Lift</text>
    <text x="262" y="302" fill="#f8fafc" font-family="Arial, Helvetica, sans-serif" font-size="28" font-weight="700">225 lb</text>
    <text x="410" y="267" fill="#a8b6cc" font-family="Arial, Helvetica, sans-serif" font-size="14">Sessions</text>
    <text x="410" y="302" fill="#f8fafc" font-family="Arial, Helvetica, sans-serif" font-size="28" font-weight="700">24</text>
  </g>

  <g>
    <rect x="626" y="240" rx="16" ry="16" width="224" height="48" fill="#111f36" stroke="#274165"/>
    <rect x="866" y="240" rx="16" ry="16" width="240" height="48" fill="#111f36" stroke="#274165"/>
    <rect x="626" y="306" rx="16" ry="16" width="480" height="58" fill="#111f36" stroke="#274165"/>
    <rect x="626" y="380" rx="18" ry="18" width="130" height="32" fill="#17335c"/>
    <rect x="772" y="380" rx="18" ry="18" width="124" height="32" fill="#17335c"/>
    <rect x="912" y="380" rx="18" ry="18" width="144" height="32" fill="#17335c"/>
    <text x="646" y="271" fill="#a8b6cc" font-family="Arial, Helvetica, sans-serif" font-size="15">Load from plan</text>
    <text x="886" y="271" fill="#a8b6cc" font-family="Arial, Helvetica, sans-serif" font-size="15">Bench Press</text>
    <text x="646" y="342" fill="#f8fafc" font-family="Arial, Helvetica, sans-serif" font-size="18">Optional quick-fill for sets, reps, split, and exercise</text>
    <text x="654" y="401" fill="#dbeafe" font-family="Arial, Helvetica, sans-serif" font-size="14">Bench 4×8</text>
    <text x="800" y="401" fill="#dbeafe" font-family="Arial, Helvetica, sans-serif" font-size="14">OHP 3×10</text>
    <text x="940" y="401" fill="#dbeafe" font-family="Arial, Helvetica, sans-serif" font-size="14">Dips 3×12</text>
  </g>

  <g>
    <rect x="94" y="500" rx="16" ry="16" width="270" height="54" fill="#111f36" stroke="#274165"/>
    <rect x="94" y="572" rx="14" ry="14" width="270" height="42" fill="#13233c"/>
    <rect x="94" y="624" rx="14" ry="14" width="270" height="42" fill="#13233c"/>
    <text x="116" y="532" fill="#f8fafc" font-family="Arial, Helvetica, sans-serif" font-size="18">Push Pull Legs</text>
    <text x="116" y="598" fill="#a8b6cc" font-family="Arial, Helvetica, sans-serif" font-size="15">Push A</text>
    <text x="116" y="650" fill="#a8b6cc" font-family="Arial, Helvetica, sans-serif" font-size="15">Pull A</text>
  </g>

  <g>
    <rect x="456" y="504" rx="18" ry="18" width="646" height="132" fill="#111f36" stroke="#274165"/>
    <rect x="978" y="520" rx="14" ry="14" width="94" height="28" fill="#0d3c31"/>
    <text x="1000" y="539" fill="#b8f5dd" font-family="Arial, Helvetica, sans-serif" font-size="13" font-weight="700">RESEARCH</text>
    <text x="486" y="542" fill="#8ab4ff" font-family="Arial, Helvetica, sans-serif" font-size="16" font-weight="700">Volume Prescription</text>
    <text x="486" y="580" fill="#f8fafc" font-family="Arial, Helvetica, sans-serif" font-size="24" font-weight="700">Your Push volume is slightly below target this week.</text>
    <text x="486" y="612" fill="#a8b6cc" font-family="Arial, Helvetica, sans-serif" font-size="17">Add one more chest movement or an extra working set if recovery stays solid.</text>
    <text x="486" y="650" fill="#6ee7b7" font-family="Arial, Helvetica, sans-serif" font-size="15">Source: PubMed Central research linked in dashboard</text>
  </g>
</svg>